<mxfile host="app.diagrams.net" modified="2024-05-07T14:35:25.234Z" agent="Mozilla/5.0 (Windows NT 10.0; Win64; x64) AppleWebKit/537.36 (KHTML, like Gecko) Chrome/126.0.0.0 Safari/537.36 Edg/126.0.0.0" etag="4AhJ6wOYGyJThVRXkRo3" version="24.3.1" type="github">
  <diagram name="第 1 页" id="9MYMKmxVkL5WLxKKv3Vq">
    <mxGraphModel dx="956" dy="577" grid="1" gridSize="10" guides="1" tooltips="1" connect="1" arrows="1" fold="1" page="1" pageScale="1" pageWidth="827" pageHeight="1169" math="0" shadow="0">
      <root>
        <mxCell id="0" />
        <mxCell id="1" parent="0" />
        <mxCell id="zqENp_ebiLbZGJkB8bHC-7" style="edgeStyle=orthogonalEdgeStyle;rounded=0;orthogonalLoop=1;jettySize=auto;html=1;exitX=0.5;exitY=0;exitDx=0;exitDy=0;entryX=0.5;entryY=1;entryDx=0;entryDy=0;" edge="1" parent="1" source="zqENp_ebiLbZGJkB8bHC-1" target="zqENp_ebiLbZGJkB8bHC-2">
          <mxGeometry relative="1" as="geometry" />
        </mxCell>
        <mxCell id="zqENp_ebiLbZGJkB8bHC-1" value="物理CPU" style="rounded=1;whiteSpace=wrap;html=1;fillColor=#ffe6cc;strokeColor=#d79b00;" vertex="1" parent="1">
          <mxGeometry x="190" y="540" width="420" height="60" as="geometry" />
        </mxCell>
        <mxCell id="zqENp_ebiLbZGJkB8bHC-6" style="edgeStyle=orthogonalEdgeStyle;rounded=0;orthogonalLoop=1;jettySize=auto;html=1;entryX=0.5;entryY=0;entryDx=0;entryDy=0;" edge="1" parent="1" source="zqENp_ebiLbZGJkB8bHC-2" target="zqENp_ebiLbZGJkB8bHC-1">
          <mxGeometry relative="1" as="geometry" />
        </mxCell>
        <mxCell id="zqENp_ebiLbZGJkB8bHC-2" value="管理程序" style="rounded=1;whiteSpace=wrap;html=1;fillColor=#ffe6cc;strokeColor=#d79b00;" vertex="1" parent="1">
          <mxGeometry x="190" y="450" width="420" height="60" as="geometry" />
        </mxCell>
        <mxCell id="zqENp_ebiLbZGJkB8bHC-3" value="" style="rounded=0;whiteSpace=wrap;html=1;fillColor=#ffe6cc;strokeColor=#d79b00;" vertex="1" parent="1">
          <mxGeometry x="190" y="210" width="210" height="240" as="geometry" />
        </mxCell>
        <mxCell id="zqENp_ebiLbZGJkB8bHC-4" value="虚拟CPU" style="rounded=0;whiteSpace=wrap;html=1;fillColor=#fff2cc;strokeColor=#d6b656;" vertex="1" parent="1">
          <mxGeometry x="190" y="400" width="210" height="50" as="geometry" />
        </mxCell>
        <mxCell id="zqENp_ebiLbZGJkB8bHC-11" style="edgeStyle=orthogonalEdgeStyle;rounded=0;orthogonalLoop=1;jettySize=auto;html=1;exitX=0.25;exitY=0;exitDx=0;exitDy=0;entryX=0.5;entryY=1;entryDx=0;entryDy=0;" edge="1" parent="1" source="zqENp_ebiLbZGJkB8bHC-8" target="zqENp_ebiLbZGJkB8bHC-9">
          <mxGeometry relative="1" as="geometry" />
        </mxCell>
        <mxCell id="zqENp_ebiLbZGJkB8bHC-13" style="edgeStyle=orthogonalEdgeStyle;rounded=0;orthogonalLoop=1;jettySize=auto;html=1;exitX=0.75;exitY=0;exitDx=0;exitDy=0;entryX=0.5;entryY=1;entryDx=0;entryDy=0;" edge="1" parent="1" source="zqENp_ebiLbZGJkB8bHC-8" target="zqENp_ebiLbZGJkB8bHC-10">
          <mxGeometry relative="1" as="geometry" />
        </mxCell>
        <mxCell id="zqENp_ebiLbZGJkB8bHC-8" value="内核" style="rounded=0;whiteSpace=wrap;html=1;fillColor=#fff2cc;strokeColor=#d6b656;" vertex="1" parent="1">
          <mxGeometry x="190" y="330" width="210" height="50" as="geometry" />
        </mxCell>
        <mxCell id="zqENp_ebiLbZGJkB8bHC-12" style="edgeStyle=orthogonalEdgeStyle;rounded=0;orthogonalLoop=1;jettySize=auto;html=1;" edge="1" parent="1" source="zqENp_ebiLbZGJkB8bHC-9">
          <mxGeometry relative="1" as="geometry">
            <mxPoint x="240" y="330" as="targetPoint" />
          </mxGeometry>
        </mxCell>
        <mxCell id="zqENp_ebiLbZGJkB8bHC-9" value="APP&lt;div&gt;A&lt;/div&gt;" style="rounded=0;whiteSpace=wrap;html=1;fillColor=#fff2cc;strokeColor=#d6b656;" vertex="1" parent="1">
          <mxGeometry x="190" y="210" width="100" height="90" as="geometry" />
        </mxCell>
        <mxCell id="zqENp_ebiLbZGJkB8bHC-14" style="edgeStyle=orthogonalEdgeStyle;rounded=0;orthogonalLoop=1;jettySize=auto;html=1;" edge="1" parent="1" source="zqENp_ebiLbZGJkB8bHC-10">
          <mxGeometry relative="1" as="geometry">
            <mxPoint x="350" y="330" as="targetPoint" />
          </mxGeometry>
        </mxCell>
        <mxCell id="zqENp_ebiLbZGJkB8bHC-10" value="APP&lt;div&gt;B&lt;/div&gt;" style="rounded=0;whiteSpace=wrap;html=1;fillColor=#fff2cc;strokeColor=#d6b656;" vertex="1" parent="1">
          <mxGeometry x="300" y="210" width="100" height="90" as="geometry" />
        </mxCell>
        <mxCell id="zqENp_ebiLbZGJkB8bHC-22" value="" style="rounded=0;whiteSpace=wrap;html=1;fillColor=#ffe6cc;strokeColor=#d79b00;" vertex="1" parent="1">
          <mxGeometry x="400" y="210" width="210" height="240" as="geometry" />
        </mxCell>
        <mxCell id="zqENp_ebiLbZGJkB8bHC-23" value="虚拟CPU" style="rounded=0;whiteSpace=wrap;html=1;fillColor=#fff2cc;strokeColor=#d6b656;" vertex="1" parent="1">
          <mxGeometry x="400" y="400" width="210" height="50" as="geometry" />
        </mxCell>
        <mxCell id="zqENp_ebiLbZGJkB8bHC-24" style="edgeStyle=orthogonalEdgeStyle;rounded=0;orthogonalLoop=1;jettySize=auto;html=1;exitX=0.25;exitY=0;exitDx=0;exitDy=0;entryX=0.5;entryY=1;entryDx=0;entryDy=0;" edge="1" parent="1" source="zqENp_ebiLbZGJkB8bHC-26" target="zqENp_ebiLbZGJkB8bHC-28">
          <mxGeometry relative="1" as="geometry" />
        </mxCell>
        <mxCell id="zqENp_ebiLbZGJkB8bHC-25" style="edgeStyle=orthogonalEdgeStyle;rounded=0;orthogonalLoop=1;jettySize=auto;html=1;exitX=0.75;exitY=0;exitDx=0;exitDy=0;entryX=0.5;entryY=1;entryDx=0;entryDy=0;" edge="1" parent="1" source="zqENp_ebiLbZGJkB8bHC-26" target="zqENp_ebiLbZGJkB8bHC-30">
          <mxGeometry relative="1" as="geometry" />
        </mxCell>
        <mxCell id="zqENp_ebiLbZGJkB8bHC-26" value="内核" style="rounded=0;whiteSpace=wrap;html=1;fillColor=#fff2cc;strokeColor=#d6b656;" vertex="1" parent="1">
          <mxGeometry x="400" y="330" width="210" height="50" as="geometry" />
        </mxCell>
        <mxCell id="zqENp_ebiLbZGJkB8bHC-27" style="edgeStyle=orthogonalEdgeStyle;rounded=0;orthogonalLoop=1;jettySize=auto;html=1;" edge="1" parent="1" source="zqENp_ebiLbZGJkB8bHC-28">
          <mxGeometry relative="1" as="geometry">
            <mxPoint x="450" y="330" as="targetPoint" />
          </mxGeometry>
        </mxCell>
        <mxCell id="zqENp_ebiLbZGJkB8bHC-28" value="APP&lt;div&gt;C&lt;/div&gt;" style="rounded=0;whiteSpace=wrap;html=1;fillColor=#fff2cc;strokeColor=#d6b656;" vertex="1" parent="1">
          <mxGeometry x="400" y="210" width="100" height="90" as="geometry" />
        </mxCell>
        <mxCell id="zqENp_ebiLbZGJkB8bHC-29" style="edgeStyle=orthogonalEdgeStyle;rounded=0;orthogonalLoop=1;jettySize=auto;html=1;" edge="1" parent="1" source="zqENp_ebiLbZGJkB8bHC-30">
          <mxGeometry relative="1" as="geometry">
            <mxPoint x="560" y="330" as="targetPoint" />
          </mxGeometry>
        </mxCell>
        <mxCell id="zqENp_ebiLbZGJkB8bHC-30" value="APP&lt;div&gt;D&lt;/div&gt;" style="rounded=0;whiteSpace=wrap;html=1;fillColor=#fff2cc;strokeColor=#d6b656;" vertex="1" parent="1">
          <mxGeometry x="510" y="210" width="100" height="90" as="geometry" />
        </mxCell>
      </root>
    </mxGraphModel>
  </diagram>
</mxfile>
